<?xml version="1.0" standalone="no"?><!DOCTYPE svg PUBLIC "-//W3C//DTD SVG 1.1//EN" "http://www.w3.org/Graphics/SVG/1.1/DTD/svg11.dtd"><svg t="1540525384740" class="icon" style="" viewBox="0 0 1024 1024" version="1.1" xmlns="http://www.w3.org/2000/svg" p-id="2479" xmlns:xlink="http://www.w3.org/1999/xlink" width="48" height="48"><defs><style type="text/css"></style></defs><path d="M582.4 661.76c-24.96 0-45.44-20.48-45.44-45.44V540.8c0-24.96 20.48-45.44 45.44-45.44 24.96 0 45.44 20.48 45.44 45.44v75.52c0 24.96-20.48 45.44-45.44 45.44z m0-151.68c-16.64 0-30.08 13.44-30.08 30.08v75.52c0 16.64 13.44 30.08 30.08 30.08s30.08-13.44 30.08-30.08V540.8c0-17.28-13.44-30.72-30.08-30.72zM473.6 661.76c-24.96 0-45.44-20.48-45.44-45.44V540.8c0-24.96 20.48-45.44 45.44-45.44 24.96 0 45.44 20.48 45.44 45.44v75.52c0 24.96-20.48 45.44-45.44 45.44z m0-151.68c-16.64 0-30.08 13.44-30.08 30.08v75.52c0 16.64 13.44 30.08 30.08 30.08s30.08-13.44 30.08-30.08V540.8c0-17.28-13.44-30.72-30.08-30.72zM728.96 282.88h-75.52c-4.48 0-7.68-3.2-7.68-7.68s3.2-7.68 7.68-7.68h75.52c4.48 0 7.68 3.2 7.68 7.68s-3.84 7.68-7.68 7.68z" fill="#00ABE0" p-id="2480"></path><path d="M691.2 434.56c-4.48 0-7.68-3.2-7.68-7.68V275.2c0-4.48 3.2-7.68 7.68-7.68s7.68 3.2 7.68 7.68v151.68c0 4.48-3.84 7.68-7.68 7.68zM402.56 282.88H327.04c-4.48 0-7.68-3.2-7.68-7.68s3.2-7.68 7.68-7.68h75.52c4.48 0 7.68 3.2 7.68 7.68s-3.2 7.68-7.68 7.68z" fill="#00ABE0" p-id="2481"></path><path d="M364.8 434.56c-4.48 0-7.68-3.2-7.68-7.68V275.2c0-4.48 3.2-7.68 7.68-7.68s7.68 3.2 7.68 7.68v151.68c0 4.48-3.2 7.68-7.68 7.68zM511.36 434.56H435.84c-4.48 0-7.68-3.2-7.68-7.68V275.2c0-4.48 3.2-7.68 7.68-7.68h75.52c4.48 0 7.68 3.2 7.68 7.68s-3.2 7.68-7.68 7.68H443.52v136.32H512c4.48 0 7.68 3.2 7.68 7.68-0.64 4.48-3.84 7.68-8.32 7.68z" fill="#00ABE0" p-id="2482"></path><path d="M492.16 339.84H435.2c-4.48 0-7.68-3.2-7.68-7.68s3.2-7.68 7.68-7.68h56.96c4.48 0 7.68 3.2 7.68 7.68s-3.2 7.68-7.68 7.68zM544.64 434.56c-1.28 0-2.56 0-3.2-0.64-3.84-1.92-5.12-6.4-3.2-10.24l75.52-151.68c1.92-3.84 6.4-5.12 10.24-3.2 3.84 1.92 5.12 6.4 3.2 10.24L551.04 430.08c-1.28 2.56-3.84 4.48-6.4 4.48z" fill="#00ABE0" p-id="2483"></path><path d="M620.16 434.56c-2.56 0-5.76-1.28-7.04-4.48L537.6 279.04c-1.92-3.84-0.64-8.32 3.2-10.24 3.84-1.92 8.32-0.64 10.24 3.2L627.2 423.68c1.92 3.84 0.64 8.32-3.2 10.24-1.28 0-2.56 0.64-3.84 0.64z" fill="#00ABE0" p-id="2484"></path><path d="M364.8 586.24h-37.76c-4.48 0-7.68-3.2-7.68-7.68V502.4c0-4.48 3.2-7.68 7.68-7.68H364.8c24.96 0 45.44 20.48 45.44 45.44 0 25.6-20.48 46.08-45.44 46.08z m-30.08-15.36H364.8c16.64 0 30.08-13.44 30.08-30.08s-13.44-30.08-30.08-30.08h-30.08v60.16z" fill="#00ABE0" p-id="2485"></path><path d="M364.8 661.76h-37.76c-4.48 0-7.68-3.2-7.68-7.68V578.56c0-4.48 3.2-7.68 7.68-7.68H364.8c24.96 0 45.44 20.48 45.44 45.44 0 24.96-20.48 45.44-45.44 45.44z m-30.08-15.36H364.8c16.64 0 30.08-13.44 30.08-30.08s-13.44-30.08-30.08-30.08h-30.08v60.16z" fill="#00ABE0" p-id="2486"></path><path d="M652.8 661.76c-4.48 0-7.68-3.2-7.68-7.68V502.4c0-4.48 3.2-7.68 7.68-7.68s7.68 3.2 7.68 7.68v151.68c0 4.48-3.2 7.68-7.68 7.68z" fill="#00ABE0" p-id="2487"></path><path d="M652.8 604.8c-1.92 0-3.2-0.64-4.48-1.92-3.2-2.56-3.84-7.68-1.28-10.88L723.2 497.92c2.56-3.2 7.68-3.84 10.88-1.28 3.2 2.56 3.84 7.68 1.28 10.88L659.2 602.24c-1.92 1.92-3.84 2.56-6.4 2.56z" fill="#00ABE0" p-id="2488"></path><path d="M728.96 661.76c-1.92 0-4.48-1.28-5.76-2.56l-60.8-75.52c-2.56-3.2-1.92-8.32 1.28-10.88 3.2-2.56 8.32-1.92 10.88 1.28l60.8 75.52c2.56 3.2 1.92 8.32-1.28 10.88-1.92 0.64-3.84 1.28-5.12 1.28z" fill="#00ABE0" p-id="2489"></path><path d="M830.72 791.68H225.28c-4.48 0-7.68-3.2-7.68-7.68V140.16c0-4.48 3.2-7.68 7.68-7.68h605.44c4.48 0 7.68 3.2 7.68 7.68v644.48c0 3.84-3.84 7.04-7.68 7.04z m-597.76-14.72h590.08V147.84H232.96v629.12zM830.72 943.36H392.96c-4.48 0-7.68-3.2-7.68-7.68s3.2-7.68 7.68-7.68h437.76c4.48 0 7.68 3.2 7.68 7.68s-3.84 7.68-7.68 7.68zM349.44 943.36h-64c-4.48 0-7.68-3.2-7.68-7.68s3.2-7.68 7.68-7.68h64c4.48 0 7.68 3.2 7.68 7.68s-3.84 7.68-7.68 7.68zM241.28 943.36h-16c-4.48 0-7.68-3.2-7.68-7.68s3.2-7.68 7.68-7.68h16c4.48 0 7.68 3.2 7.68 7.68s-3.2 7.68-7.68 7.68z" fill="#211D1C" p-id="2490"></path><path d="M819.84 943.36c-3.2 0-6.4-1.92-7.04-5.76l-21.12-75.52c-0.64-1.28-0.64-2.56 0-3.84l21.12-75.52c1.28-3.84 5.12-6.4 9.6-5.12 3.84 1.28 6.4 5.12 5.12 9.6l-21.12 73.6 21.12 73.6c1.28 3.84-1.28 8.32-5.12 9.6-1.28-0.64-1.92-0.64-2.56-0.64zM225.28 943.36c-46.08 0-83.2-37.12-83.2-83.2s37.12-83.2 83.2-83.2c4.48 0 7.68 3.2 7.68 7.68s-3.2 7.68-7.68 7.68c-37.76 0-68.48 30.72-68.48 68.48 0 37.76 30.72 68.48 68.48 68.48 3.84 0 7.68 3.2 7.68 7.68s-3.2 7.68-7.04 7.68l-0.64-1.28z" fill="#211D1C" p-id="2491"></path><path d="M149.76 867.84c-4.48 0-7.68-3.2-7.68-7.68V215.68c0-46.08 37.12-83.2 83.2-83.2 4.48 0 7.68 3.2 7.68 7.68s-3.2 7.68-7.68 7.68c-37.76 0-68.48 30.72-68.48 68.48v644.48c0.64 3.2-3.2 7.04-7.04 7.04z" fill="#211D1C" p-id="2492"></path><path d="M392.96 986.88c-1.92 0-3.84-0.64-5.12-1.92l-70.4-70.4-70.4 70.4c-1.92 1.92-5.12 2.56-8.32 1.92-2.56-1.28-4.48-3.84-4.48-7.04v-151.68c0-4.48 3.2-7.68 7.68-7.68h151.68c4.48 0 7.68 3.2 7.68 7.68V979.2c0 3.2-1.92 5.76-4.48 7.04-1.92 0.64-3.2 0.64-3.84 0.64zM317.44 896c1.92 0 3.84 0.64 5.12 1.92l62.72 62.72v-125.44H248.96v125.44l62.72-62.72c1.92-1.28 3.84-1.92 5.76-1.92z" fill="#00ABE0" p-id="2493"></path></svg>