<?xml version="1.0" standalone="no"?><!DOCTYPE svg PUBLIC "-//W3C//DTD SVG 1.1//EN" "http://www.w3.org/Graphics/SVG/1.1/DTD/svg11.dtd"><svg t="1539912908509" class="icon" style="" viewBox="0 0 1024 1024" version="1.1" xmlns="http://www.w3.org/2000/svg" p-id="556" xmlns:xlink="http://www.w3.org/1999/xlink" width="200" height="200"><defs><style type="text/css"></style></defs><path d="M286.26488889 482.87288889c6.31087445-11.16539221 19.90352555-18.93262222 35.92343666-18.93262222 21.84533333 0 33.49617778 15.04900779 33.49617778 33.01072554 0 4.8545189-0.97090333 9.70903666-2.42725888 13.59265224 1.94180779 6.31087445 2.91271111 13.59265223 2.42725888 22.33078556-0.48545223 11.16539221-3.88361443 20.38897778-8.73813334 27.18530332 5.33996999 5.82542222 8.73813333 13.1072 8.73813334 20.87443001 0 18.44716999-17.47626667 33.01072555-39.3216 33.01072555s-39.3216-15.04900779-39.3216-33.01072555v-2.42726001C258.59413333 569.76876999 240.14696334 552.77795555 240.14696334 532.87443001c0-24.75804445 19.90352555-45.63247445 46.11792555-50.00154112zM751.81321443 484.81469667c-6.31087445-11.65084445-20.38897778-19.90352555-36.40888888-19.90352668-22.33078557 0-39.80705223 15.04900779-39.8070511 33.49617778 0 5.82542222 1.94180779 11.16539221 4.85451776 16.01991111-3.39816334 6.31087445-4.8545189 13.1072-4.85451776 20.38897778 0 11.65084445 4.36906667 22.33078557 12.13629554 31.06891889-3.88361443 5.33996999-6.31087445 11.16539221-6.31087332 17.9617189 0 18.44716999 17.9617189 33.49617778 39.8070511 33.49617778 22.33078557 0 49.03063666-15.04900779 49.0306378-33.49617778 0-2.42725888-0.48545223-4.36906667-0.97090447-6.31087445 15.53445888-10.19448889 25.24349667-27.18530333 25.24349668-45.63247445 0-23.78714112-16.99081443-42.23431111-42.71976335-47.08882888z" fill="#FF5E5E" p-id="557"></path><path d="M463.45481443 644.52835555a50.48699221 50.00154112 0 1 0 100.97398557 0 50.48699221 50.00154112 0 1 0-100.97398557 0Z" fill="#FF5E5E" p-id="558"></path><path d="M389.66613333 445.49309667h256.31857778c4.36906667 0 7.76723001 3.39816334 7.76723001 7.76722888 0 4.36906667-3.39816334 7.76723001-7.76723001 7.76723H389.66613333c-4.36906667 0-7.76723001-3.39816334-7.76723-7.76723 0-4.36906667 3.39816334-7.76723001 7.76723-7.76722888z" fill="#FF5E5E" p-id="559"></path><path d="M372.18986667 645.49925888a27.18530333 26.69985223 0 1 0 54.37060778 0 27.18530333 26.69985223 0 1 0-54.37060778 0Z" fill="#FFDC45" p-id="560"></path><path d="M594.52681443 647.9265189a24.75804445 24.27259221 0 1 0 49.5160889 0 24.75804445 24.27259221 0 1 0-49.5160889 0Z" fill="#FFDC45" p-id="561"></path><path d="M385.7825189 433.84225223s12.62174777-65.05054777 39.80705109-105.82850446 75.73048889-74.27413333 135.44106667-67.96325888 107.28485888 37.86524445 120.39206001 54.37060778c2.42725888 3.39816334 0 5.33996999 0 6.79632555-4.36906667-6.31087445-9.70903666-10.67994112-15.53446001-13.59265223-16.01991111-8.2526811-34.4670811-5.82542222-39.3216-1.45635556-8.73813333 8.2526811-8.73813333 17.47626667 11.65084444 44.66157114s11.16539221 82.52681443 11.16539335 82.52681443" fill="#33D6C4" p-id="562"></path><path d="M677.05363001 348.40272555a25.72894777 25.72894777 0 1 0 51.45789554 0 25.72894777 25.72894777 0 1 0-51.45789554 0Z" fill="#FF5E5E" p-id="563"></path><path d="M437.24041443 532.87443001c13.1072 0 25.24349667 5.33996999 32.03982223 13.59265109 3.88361443 4.8545189 5.82542222 10.67994112 5.82542222 16.50536335H482.87288889c0-7.76723001-2.91271111-15.04900779-7.76723001-21.35988111-8.2526811-10.19448889-22.33078557-16.50536334-37.86524445-16.50536334-16.99081443 0-32.52527445 7.76723001-40.29250332 20.87443001l6.31087446 3.88361444c6.31087445-10.19448889 19.41807445-16.99081443 33.98162886-16.99081444zM554.23431111 546.95253333c6.79632555-8.2526811 18.93262222-13.59265223 32.03982222-13.59265223 14.56355555 0 27.67075555 6.79632555 34.4670811 16.99081557l6.31087446-3.88361557c-7.76723001-12.62174777-23.30168889-20.87443001-40.29250332-20.87442887-15.53445888 0-29.61256334 6.31087445-37.86524445 16.5053622-4.8545189 5.82542222-7.76723001 13.59265223-7.76723001 21.35988224h7.28177778c0-5.82542222 1.94180779-12.13629667 5.82542222-16.50536334zM513.45635555 573.16693333c-34.4670811 0-62.13783666 27.67075555-62.13783665 61.65238557S478.98927445 696.47170333 513.45635555 696.47170333c34.4670811 0 62.13783666-27.18530333 62.13783666-61.65238443 0-33.98163001-27.67075555-61.65238557-62.13783666-61.65238557z m0 116.02299222c-30.58346667 0-54.85605888-24.27259221-54.85605888-54.37060665s24.75804445-54.37060779 54.85605888-54.37060779 54.85605888 24.27259221 54.85605888 54.37060779-24.75804445 54.37060779-54.85605888 54.37060665zM406.65694777 600.35223666c-20.87443001 0-37.86524445 16.99081443-37.86524444 37.86524444s16.99081443 37.86524445 37.86524444 37.86524445 37.86524445-16.99081443 37.86524444-37.86524445-16.99081443-37.86524445-37.86524444-37.86524444z m0 68.44871111c-16.99081443 0-30.58346667-13.59265223-30.58346667-30.58346667 0-16.50536334 13.59265223-30.58346667 30.58346667-30.58346667s30.58346667 13.59265223 30.58346666 30.58346667-13.59265223 30.58346667-30.58346666 30.58346667zM620.25576334 600.35223666c-20.87443001 0-37.86524445 16.99081443-37.86524444 37.86524444s16.99081443 37.86524445 37.86524444 37.86524445 37.86524445-16.99081443 37.86524445-37.86524445-16.99081443-37.86524445-37.86524445-37.86524444z m0 68.44871111c-16.99081443 0-31.0689189-13.59265223-30.58346667-30.58346667 0-16.99081443 13.59265223-30.58346667 30.58346667-30.58346667s30.58346667 13.59265223 30.58346667 30.58346667-13.59265223 30.58346667-30.58346667 30.58346667z" fill="#D12C2C" p-id="564"></path><path d="M763.46405888 465.88207445c-8.2526811-13.59265223-24.75804445-22.81623666-43.20521443-22.81623779-21.84533333 0-40.77795555 12.62174777-46.60337778 29.61256334-3.88361443-6.31087445-9.22358557-11.16539221-16.01991112-16.50536334 2.42725888-2.42725888 3.88361443-5.82542222 3.88361444-9.70903666 0-5.82542222-3.39816334-10.67994112-8.2526811-12.62174777 0-0.48545223 0-0.97090333 0.48545223-1.94180778 0-1.94180779 0.48545223-3.88361443 0.48545109-5.82542223 1.45635555-13.59265223 1.45635555-28.15620779-0.48545109-41.74885888-1.94180779-14.56355555-5.82542222-26.69985223-12.62174891-35.43798556-17.9617189-23.78714112-19.41807445-32.52527445-11.65084444-39.80705223 2.42725888-2.42725888 11.65084445-3.88361443 20.38897778-2.42725888 11.65084445 1.94180779 21.3598811 7.28177778 28.64166002 16.50536334-4.36906667 6.31087445-6.79632555 13.59265223-6.79632669 21.3598811 0 20.87443001 16.99081443 37.86524445 37.86524445 37.86524444s37.86524445-16.99081443 37.86524444-37.86524444-16.99081443-37.86524445-37.86524444-37.86524444c-3.88361443 0-8.2526811 0.48545223-11.65084445 1.94180778-3.39816334-6.79632555-10.67994112-15.04900779-20.87442887-23.78714112-19.41807445-16.01991111-47.5742811-32.03982222-76.70139335-41.74885888-65.536-22.81623666-144.1792 1.45635555-183.5008 58.73967332-6.31087445 9.22358557-11.65084445 19.41807445-16.50536221 30.09801557-8.73813333 19.90352555-14.07810333 41.26340779-16.50536334 62.62328889-1.94180779 14.56355555-2.42725888 27.18530333-1.94180778 37.37979222v2.42725888c-5.82542222 1.45635555-10.19448889 6.79632555-10.1944889 13.1072 0 3.39816334 1.45635555 6.31087445 3.39816335 8.73813333-7.28177778 5.33996999-12.13629667 10.67994112-15.53445888 16.01991111-6.31087445-16.50536334-24.75804445-28.15620779-46.11792669-28.15620665-18.44716999 0-34.95253333 8.73813333-43.20521443 22.81623666C239.17605888 473.16385223 216.84527445 497.43644445 216.84527445 525.59265223c0 24.27259221 16.50536334 45.63247445 41.26340665 55.8269622 0.48545223 22.33078557 22.33078557 40.29250333 48.54518557 40.29250447 5.33996999 0 10.19448889-0.48545223 15.04900778-1.94180779 11.16539221 98.06127445 94.66311111 172.82085888 195.15164445 172.82085888s183.98625223-74.75958557 195.15164444-172.82085888c4.8545189 1.45635555 9.70903666 1.94180779 15.04900665 1.94180779 26.2144 0 47.5742811-17.9617189 48.54518556-40.29250447 24.75804445-10.19448889 41.26340779-31.55436999 41.26340779-55.8269622 0-28.15620779-22.33078557-52.4288-53.39970446-59.71057778z m-53.39970333-151.94643c16.50536334 0 30.58346667 13.59265223 30.58346667 30.58346666s-13.59265223 30.58346667-30.58346667 30.58346667-30.58346667-13.59265223-30.58346666-30.58346667 13.59265223-30.58346667 30.58346666-30.58346666zM391.12248889 395.00610333c2.42725888-20.87443001 7.76723001-41.26340779 16.01991111-60.68148111 4.36906667-10.19448889 9.70903666-19.90352555 15.53445888-28.64165888 37.37979221-54.85605888 112.62483001-77.67229667 174.76266667-56.31241557 28.64165888 9.70903666 55.82696334 24.75804445 74.75958556 40.77795556 10.19448889 8.2526811 16.50536334 16.01991111 18.93262222 21.35988224-2.91271111 1.45635555-5.82542222 3.88361443-8.2526811 5.82542222-15.53445888-19.41807445-48.05973333-24.27259221-58.73967445-13.59265224-11.16539221 10.67994112-8.73813333 22.81623666 11.16539221 49.5160889 5.82542222 7.76723001 9.70903666 18.93262222 11.16539335 32.03982222 1.94180779 13.1072 1.45635555 26.69985223 0.48545109 39.80705223 0 1.94180779-0.48545223 3.88361443-0.48545109 5.82542222 0 0.97090333 0 1.94180779-0.48545223 1.94180665H389.66613333v-1.94180665c-0.48545223-9.22358557 0-21.3598811 1.45635556-35.92343779zM385.7825189 440.63857778h262.144c3.39816334 0 6.31087445 2.91271111 6.31087331 6.31087445 0 2.42725888-1.45635555 4.36906667-2.91271111 5.33996999 0 0-0.97090333 0.97090333-2.91271111 0.97090333H385.7825189c-0.97090333 0-1.45635555 0-2.42726002-0.4854511-0.48545223 0-0.48545223-0.48545223-0.97090333-0.48545223-1.94180779-0.97090333-3.39816334-2.91271111-3.39816334-5.33996999 0.48545223-3.39816334 3.39816334-6.31087445 6.79632669-6.31087445zM306.65386667 614.43034112c-22.81623666 0-41.26340779-15.53445888-41.26340779-33.98163001v-3.88361444l-2.42725888-0.97090446c-23.78714112-8.73813333-38.83614777-28.15620779-38.83614777-50.00153998 0-24.75804445 20.38897778-46.60337778 49.03063666-52.91425223l1.45635556-0.48545223 0.97090332-1.45635556c6.31087445-12.13629667 21.3598811-20.38897778 37.86524444-20.38897778 22.81623666 0 41.26340779 15.53445888 41.26340779 33.98163002 0 5.82542222-1.94180779 11.16539221-4.8545189 16.0199111l-0.97090332 1.94180779 0.97090332 1.94180665c3.39816334 6.79632555 5.33996999 13.59265223 5.33997113 21.35988224 0 11.65084445-4.36906667 22.81623666-12.6217489 32.52527332l-1.94180666 2.42726002 1.94180666 2.42725888c3.88361443 5.33996999 6.31087445 11.16539221 6.31087445 17.96171889-0.97090333 17.9617189-19.41807445 33.49617778-42.23431111 33.49617778zM516.8545189 784.82394112c-97.09036999 0-178.16083001-72.81777778-188.3553189-167.96634112 15.53445888-6.79632555 26.69985223-20.38897778 26.69985223-36.89434112 0-6.79632555-1.94180779-13.59265223-5.82542222-19.90352555 8.2526811-10.19448889 12.62174777-22.33078557 12.62174777-34.95253333 0-7.76723001-1.94180779-15.53445888-4.8545189-22.81623666 3.39816334-5.82542222 4.8545189-11.65084445 4.8545189-18.44717113v-1.94180664c0.48545223-0.48545223 0.48545223-0.97090333 0.97090332-1.45635556 2.91271111-7.28177778 8.2526811-13.59265223 18.93262223-21.35988224 1.45635555 0.48545223 2.42725888 0.48545223 3.88361557 0.48545223h262.144c0.97090333 0 1.94180779 0 2.91271111-0.48545223 10.19448889 7.28177778 16.50536334 14.56355555 20.87442887 24.27259335 0 6.31087445 1.94180779 12.62174777 4.8545189 18.44716999-3.39816334 7.28177778-4.8545189 14.56355555-4.8545189 22.81623666 0 12.62174777 4.36906667 24.75804445 12.62174891 34.95253333-3.88361443 5.82542222-5.82542222 12.62174777-5.82542222 19.90352669 0 16.01991111 10.67994112 30.09801443 26.69985109 36.89433998C695.01534777 712.00616334 613.94488889 784.82394112 516.8545189 784.82394112z m253.40586667-209.22974891l-2.42726002 0.97090446v3.88361444c0 18.44716999-18.44716999 33.98163001-41.26340665 33.98163001s-41.26340779-15.53445888-41.26340779-33.98163001c0-6.31087445 1.94180779-12.62174777 6.31087446-17.9617189l1.94180664-2.42725888-1.94180664-1.94180778c-8.2526811-9.22358557-12.62174777-20.38897778-12.62174891-32.52527332 0-7.28177778 1.94180779-14.56355555 5.33997113-21.35988224l0.97090332-1.94180665-0.97090332-1.94180779c-2.42725888-3.88361443-4.36906667-8.73813333-4.8545189-13.1072 0.48545223-0.97090333 0.97090333-2.42725888 0.48545223-3.39816334 0-0.48545223-0.48545223-0.48545223-0.48545223-0.97090332 0.97090333-17.9617189 18.93262222-32.52527445 41.26340778-32.52527446 16.50536334 0 31.0689189 8.2526811 37.86524445 20.38897778l0.97090333 1.45635556 1.45635555 0.48545223c28.64165888 6.31087445 49.03063666 27.67075555 49.03063666 52.91425223-0.97090333 21.84533333-16.01991111 41.26340779-39.80705109 50.00153998z" fill="#D12C2C" p-id="565"></path><path d="M608.11946667 366.84989667l5.82542222-4.36906666c0.48545223 0.48545223 1.45635555 1.94180779 2.42725888 3.3981622 1.45635555 2.42725888 3.39816334 5.33996999 4.8545189 8.73813334 6.79632555 13.59265223 9.22358557 27.67075555 5.33996999 41.26340778l-6.79632555-1.94180778c3.39816334-11.65084445 1.45635555-23.78714112-4.8545189-35.92343666-1.45635555-2.91271111-2.91271111-5.33996999-4.36906666-7.76723001-1.45635555-1.94180779-1.94180779-2.91271111-2.42725888-3.39816221z" fill="#D12C2C" p-id="566"></path></svg>